<svg width="10" height="18" viewBox="0 0 10 18" fill="none" xmlns="http://www.w3.org/2000/svg">
<path d="M6.86087 4.58727C6.85054 5.19053 6.8587 5.79325 6.8587 6.41772C6.94464 6.42153 7.0159 6.42806 7.08771 6.42806C7.79324 6.4286 8.49931 6.42752 9.20538 6.4286C9.63294 6.42969 9.73847 6.53468 9.73902 6.95462C9.7401 7.76242 9.74065 8.57021 9.73902 9.37801C9.73793 9.75226 9.64491 9.84691 9.26848 9.84854C8.54881 9.85181 7.82968 9.84963 7.11001 9.84963H6.85978V16.4763C6.85978 17.0752 6.80104 17.1328 6.19233 17.1328C5.41826 17.1328 4.64474 17.1334 3.87121 17.1323C3.44148 17.1318 3.34193 17.0333 3.34139 16.6068C3.34084 14.4554 3.34139 12.3035 3.34139 10.1515V9.88716C3.2587 9.88227 3.18744 9.87465 3.11618 9.87465C2.52598 9.87356 1.93523 9.8752 1.34502 9.87356C0.93541 9.87193 0.836407 9.77674 0.83532 9.37094C0.832056 8.57674 0.8326 7.78254 0.834776 6.98835C0.835864 6.56623 0.93269 6.47158 1.34992 6.47103C1.93359 6.47049 2.51727 6.47103 3.10095 6.47103H3.34139C3.34139 6.3704 3.3403 6.29098 3.34139 6.21156C3.35553 5.43804 3.32779 4.66125 3.39306 3.89262C3.55843 1.95772 5.04619 0.556995 6.99034 0.484103C7.80357 0.453641 8.61844 0.471048 9.4333 0.473224C9.70257 0.474312 9.81789 0.590721 9.81952 0.861618C9.82387 1.66941 9.82387 2.47721 9.81952 3.285C9.81789 3.55971 9.70475 3.6685 9.40991 3.67557C8.8605 3.68863 8.31055 3.68917 7.76114 3.69733C7.12361 3.70712 6.87229 3.9481 6.86087 4.58727Z" fill="#555555"/>
</svg>
