<svg width="18" height="18" viewBox="0 0 18 18" fill="none" xmlns="http://www.w3.org/2000/svg">
<path d="M17.3303 5.10944C17.3189 3.31312 16.5179 1.95009 14.9682 1.04276C14.2863 0.643304 13.5326 0.470479 12.7423 0.470072C10.2473 0.468034 7.7524 0.46192 5.25744 0.471702C3.22675 0.479447 1.5303 1.71897 0.887914 3.65469C0.79335 3.94002 0.758703 4.24572 0.696747 4.54205C0.685742 4.59463 0.676775 4.64762 0.666992 4.7002V12.902C0.711829 13.1515 0.736285 13.4066 0.804355 13.6496C1.3212 15.4944 2.51997 16.6275 4.38884 17.0498C4.55636 17.0877 4.72878 17.1057 4.89875 17.133H13.1022C13.3521 17.0881 13.6072 17.0637 13.8506 16.9956C15.6934 16.4796 16.8298 15.2829 17.2455 13.416C17.3124 13.1172 17.3295 12.8026 17.3303 12.4952C17.3368 10.0333 17.3458 7.57137 17.3303 5.10944ZM9.00782 13.3683C6.4986 13.3826 4.43123 11.3185 4.43245 8.8003C4.43367 6.28456 6.46722 4.24816 8.99315 4.2339C11.5024 4.21963 13.5697 6.28334 13.5685 8.80152C13.5673 11.3173 11.5338 13.3537 9.00782 13.3683ZM13.8441 5.34625C13.09 5.34381 12.4558 4.70876 12.4562 3.95632C12.4562 3.20143 13.0884 2.57209 13.8461 2.57291C14.6079 2.57331 15.232 3.19817 15.2299 3.95877C15.2283 4.71691 14.5973 5.3487 13.8441 5.34625Z" fill="#555555"/>
</svg>
