<svg width="14" height="18" viewBox="0 0 14 18" fill="none" xmlns="http://www.w3.org/2000/svg">
<path d="M13.4365 6.07923C13.4412 7.35287 13.2117 8.58264 12.6495 9.73344C12.0386 10.9828 11.1335 11.9426 9.8079 12.4279C8.79817 12.7984 7.76616 12.8895 6.75643 12.4063C6.4905 12.2794 6.24954 12.1012 5.98495 11.9385C5.89923 12.2679 5.80542 12.6094 5.7224 12.9536C5.49696 13.8925 5.22563 14.8158 4.80716 15.6906C4.60062 16.1219 4.37856 16.5444 4.02219 16.8758C3.95537 16.9379 3.8791 16.9919 3.80013 17.0391C3.49707 17.2194 3.19604 17.1357 3.03203 16.8252C2.86531 16.5093 2.83292 16.1637 2.82347 15.8155C2.79242 14.6235 3.00908 13.4653 3.29188 12.3138C3.61114 11.0152 3.91217 9.71116 4.21522 8.4085C4.23547 8.32076 4.22535 8.21614 4.19767 8.12907C3.8683 7.08897 3.84265 6.06911 4.41028 5.09717C4.72279 4.56261 5.17231 4.20083 5.80339 4.10162C6.69366 3.96122 7.4793 4.60311 7.54477 5.50215C7.5927 6.15213 7.40911 6.75756 7.23834 7.36772C7.07973 7.93063 6.90762 8.4895 6.74968 9.05241C6.66193 9.36491 6.67003 9.67674 6.83675 9.9663C7.1209 10.4577 7.57582 10.6176 8.10836 10.5697C8.73337 10.5144 9.19031 10.1566 9.55816 9.67539C10.0286 9.05983 10.2891 8.35113 10.4457 7.60126C10.6037 6.84328 10.6867 6.07856 10.5746 5.30708C10.3944 4.06179 9.69923 3.21742 8.50996 2.83135C7.30989 2.4419 6.1105 2.49725 4.96847 3.06488C3.7846 3.65277 3.08467 4.6328 2.79647 5.90914C2.65068 6.55778 2.62368 7.21383 2.89096 7.84289C2.98478 8.0636 3.12247 8.27149 3.26894 8.46385C3.44375 8.69266 3.51462 8.92687 3.437 9.20697C3.37153 9.44186 3.31956 9.68012 3.25206 9.91433C3.11977 10.3773 2.78904 10.5292 2.35167 10.3341C1.48368 9.9474 0.943717 9.26232 0.644712 8.3869C0.157395 6.96207 0.24244 5.55209 0.893096 4.19746C1.84951 2.20769 3.47007 1.06837 5.60765 0.629648C5.94041 0.561477 6.28328 0.538529 6.62144 0.493307C6.65788 0.488582 6.69366 0.475758 6.72943 0.466309H7.64129C7.82353 0.487907 8.00577 0.507481 8.18801 0.531779C9.74108 0.734266 11.0741 1.37547 12.1068 2.56744C12.9748 3.56975 13.4324 4.74552 13.4365 6.07923Z" fill="#FF782D"/>
</svg>
