<svg width="48" height="48" viewBox="0 0 48 48" fill="none" xmlns="http://www.w3.org/2000/svg">
<rect x="1" y="1" width="46" height="46" rx="23" stroke="#FF782D" stroke-width="2"/>
<path fill-rule="evenodd" clip-rule="evenodd" d="M23.1667 17.3334C19.945 17.3334 17.3334 19.945 17.3334 23.1667C17.3334 26.3883 19.945 29 23.1667 29C26.3883 29 29 26.3883 29 23.1667C29 19.945 26.3883 17.3334 23.1667 17.3334ZM15.6667 23.1667C15.6667 19.0246 19.0246 15.6667 23.1667 15.6667C27.3088 15.6667 30.6667 19.0246 30.6667 23.1667C30.6667 27.3088 27.3088 30.6667 23.1667 30.6667C19.0246 30.6667 15.6667 27.3088 15.6667 23.1667Z" fill="#FF782D"/>
<path fill-rule="evenodd" clip-rule="evenodd" d="M27.2858 27.2858C27.6112 26.9603 28.1388 26.9603 28.4643 27.2858L32.0893 30.9108C32.4147 31.2362 32.4147 31.7638 32.0893 32.0893C31.7638 32.4147 31.2362 32.4147 30.9108 32.0893L27.2858 28.4643C26.9603 28.1388 26.9603 27.6112 27.2858 27.2858Z" fill="#FF782D"/>
</svg>
