<svg width="17" height="18" viewBox="0 0 17 18" fill="none" xmlns="http://www.w3.org/2000/svg">
<path d="M15.9864 15.7611C14.1309 13.0537 12.2738 10.3471 10.4174 7.64025C10.3932 7.60498 10.3709 7.56827 10.3407 7.52143C10.6659 7.14238 10.9894 6.76496 11.3133 6.38771C12.9966 4.42717 14.6801 2.46645 16.3634 0.505733C16.3739 0.493435 16.3822 0.47951 16.3916 0.466309H14.9621C13.2149 2.50081 11.4676 4.5355 9.6926 6.60238C9.67126 6.56386 9.65607 6.53076 9.63581 6.50128C8.27279 4.51308 6.9094 2.52523 5.54637 0.537019C5.53136 0.514956 5.52069 0.489999 5.50785 0.466309H0.666992C0.708948 0.53503 0.747649 0.605921 0.793041 0.67211C2.83894 3.65641 4.88538 6.64035 6.93182 9.62448C6.95316 9.65558 6.9736 9.68741 7.00344 9.73244C6.83724 9.92739 6.67014 10.1243 6.50177 10.3204C4.59928 12.5359 2.69661 14.7512 0.794307 16.967C0.749096 17.0198 0.70931 17.0775 0.666992 17.133H2.09657C2.744 16.3754 3.39015 15.6168 4.03885 14.8603C5.19209 13.5154 6.34697 12.1715 7.50112 10.8275C7.54326 10.7783 7.58666 10.7303 7.63694 10.673C7.66949 10.7124 7.69842 10.7428 7.72193 10.777C9.15278 12.863 10.5833 14.9493 12.0136 17.0359C12.0347 17.0668 12.0517 17.1006 12.0707 17.133H16.9114C16.6032 16.6756 16.2981 16.2161 15.9864 15.7611ZM14.768 16.0969C14.151 16.0975 13.5339 16.0942 12.9169 16.1C12.802 16.1009 12.7313 16.0682 12.6642 15.9721C9.35008 11.2174 6.0332 6.46421 2.71687 1.71088C2.68631 1.66712 2.65846 1.62137 2.60963 1.5465C3.21492 1.5465 3.78856 1.56928 4.3593 1.53781C4.69694 1.51919 4.88303 1.638 5.07418 1.91325C8.31257 6.57561 11.5638 11.2291 14.8121 15.8846C14.8543 15.945 14.895 16.0063 14.9503 16.0873C14.8709 16.0917 14.8196 16.0967 14.768 16.0969Z" fill="#555555"/>
</svg>
