<svg width="20" height="13" viewBox="0 0 20 13" fill="none" xmlns="http://www.w3.org/2000/svg">
<path d="M18.8681 2.52919C18.6677 1.42172 17.9908 0.710799 16.9326 0.51725C16.4959 0.437082 16.0513 0.378673 15.6078 0.358631C13.727 0.273595 11.8453 0.206884 9.96395 0.133301C9.96337 0.15277 9.9628 0.17224 9.96223 0.191709C9.52961 0.191709 9.0967 0.18541 8.66436 0.192854C6.87059 0.222918 5.07654 0.242673 3.29222 0.465427C2.18246 0.603717 1.41371 1.26367 1.18265 2.36084C1.05352 2.97355 0.983089 3.60173 0.932125 4.22675C0.823039 5.56356 0.796125 6.90466 0.891182 8.24347C0.950163 9.0715 1.02575 9.9021 1.16347 10.7201C1.34413 11.7915 2.08254 12.4998 3.12215 12.6542C3.73773 12.7455 4.35932 12.8234 4.98063 12.8437C6.88777 12.9055 8.79607 12.9628 10.7041 12.9723C12.6061 12.982 14.5089 12.9368 16.4035 12.7378C16.8919 12.6862 17.3732 12.6084 17.8001 12.3349C18.5062 11.8828 18.8274 11.2034 18.9044 10.4054C19.0084 9.32575 19.1137 8.24347 19.1492 7.16034C19.2005 5.61052 19.1449 4.06126 18.8681 2.52919ZM8.18679 9.3183V3.84538C9.77527 4.75844 11.3471 5.66205 12.9468 6.5817C11.3494 7.5002 9.77784 8.40352 8.18679 9.3183Z" fill="#555555"/>
</svg>
